<svg width="49" height="42" viewBox="0 0 49 42" fill="none" xmlns="http://www.w3.org/2000/svg">
<path d="M15.478 2.6917L3.82587 21L15.478 39.3083C15.6015 39.5023 15.6856 39.7187 15.7254 39.9452C15.7652 40.1717 15.7599 40.4039 15.71 40.6283C15.66 40.8528 15.5662 41.0653 15.4341 41.2535C15.302 41.4417 15.134 41.6021 14.9399 41.7253C14.6599 41.9048 14.3341 41.9997 14.0015 41.9988C13.7066 41.999 13.4165 41.9248 13.158 41.7829C12.8994 41.641 12.681 41.4361 12.5229 41.1872L0.273576 21.9384C0.0949026 21.6576 0 21.3317 0 20.9989C0 20.6661 0.0949026 20.3402 0.273576 20.0594L12.5229 0.810558C12.772 0.418972 13.1665 0.142405 13.6196 0.0416979C14.0727 -0.059009 14.5472 0.0243934 14.9388 0.273558C15.3304 0.522722 15.607 0.917239 15.7077 1.37032C15.8084 1.8234 15.725 2.29792 15.4758 2.68951L15.478 2.6917ZM48.726 20.0616L36.4767 0.812745C36.3534 0.618851 36.193 0.451157 36.0048 0.319235C35.8167 0.187314 35.6043 0.0937508 35.38 0.0438857C34.9269 -0.0568212 34.4524 0.0265812 34.0608 0.275746C33.6692 0.52491 33.3926 0.919426 33.2919 1.37251C33.1912 1.82558 33.2746 2.30011 33.5238 2.6917L45.1759 21L33.5238 39.3083C33.4003 39.5023 33.3162 39.7187 33.2764 39.9452C33.2366 40.1717 33.2419 40.4039 33.2918 40.6283C33.3418 40.8528 33.4355 41.0653 33.5677 41.2535C33.6998 41.4417 33.8677 41.6021 34.0619 41.7253C34.3419 41.9048 34.6677 41.9997 35.0003 41.9988C35.2952 41.999 35.5853 41.9248 35.8438 41.7829C36.1023 41.641 36.3208 41.4361 36.4789 41.1872L48.7282 21.9384C48.9061 21.6576 49.0004 21.332 49 20.9997C48.9996 20.6673 48.9046 20.3419 48.726 20.0616Z" fill="black"/>
</svg>
