<svg width="31" height="50" viewBox="0 0 31 50" fill="none" xmlns="http://www.w3.org/2000/svg">
<path d="M26.35 0H4.65C3.41674 0 2.234 0.489909 1.36195 1.36195C0.489909 2.234 0 3.41674 0 4.65L0 44.95C0 46.1833 0.489909 47.366 1.36195 48.238C2.234 49.1101 3.41674 49.6 4.65 49.6H26.35C27.5833 49.6 28.766 49.1101 29.638 48.238C30.5101 47.366 31 46.1833 31 44.95V4.65C31 3.41674 30.5101 2.234 29.638 1.36195C28.766 0.489909 27.5833 0 26.35 0ZM15.5 46.5C15.0934 46.4997 14.6909 46.4194 14.3154 46.2635C13.9399 46.1077 13.5988 45.8794 13.3115 45.5918C12.7313 45.0108 12.4057 44.2231 12.4062 43.4021C12.4065 42.9955 12.4868 42.593 12.6426 42.2175C12.7985 41.842 13.0267 41.5008 13.3144 41.2136C13.8954 40.6334 14.6831 40.3077 15.5041 40.3083C16.3252 40.3088 17.1124 40.6355 17.6926 41.2165C18.2728 41.7975 18.5985 42.5851 18.5979 43.4062C18.5974 44.2273 18.2707 45.0145 17.6897 45.5947C17.1087 46.1749 16.3211 46.5005 15.5 46.5ZM26.35 36.0427C26.3478 36.3489 26.2252 36.6421 26.0086 36.8586C25.7921 37.0752 25.4989 37.1978 25.1927 37.2H5.81147C5.50452 37.2 5.21015 37.0781 4.99311 36.861C4.77607 36.644 4.65413 36.3496 4.65413 36.0427V5.81353C4.65413 5.50659 4.77607 5.21222 4.99311 4.99518C5.21015 4.77813 5.50452 4.6562 5.81147 4.6562H25.1844C25.4907 4.65836 25.7838 4.78099 26.0004 4.99757C26.2169 5.21414 26.3396 5.50726 26.3417 5.81353L26.35 36.0427Z" fill="black"/>
</svg>
