<svg width="49" height="49" viewBox="0 0 49 49" fill="none" xmlns="http://www.w3.org/2000/svg">
<path d="M15.9853 29.6048C12.1457 29.8517 8.66113 31.3141 6.68391 36.5241C6.459 37.1185 5.91828 37.4793 5.2876 37.4793C4.22434 37.4793 0.936934 34.8312 0 34.1919C0.000957031 42.073 3.63098 49 12.251 49C19.511 49 24.501 44.8111 24.501 37.4974C24.501 37.1998 24.4388 36.9156 24.4081 36.6237L15.9853 29.6048ZM43.8225 0C42.3716 0 41.0117 0.642168 39.9742 1.57432C20.4116 19.0497 18.376 19.4603 18.376 24.6043C18.376 25.9154 18.687 27.1653 19.2114 28.308L25.3192 33.3975C26.0092 33.5698 26.7203 33.6875 27.462 33.6875C33.4061 33.6875 36.8514 29.3359 47.6707 9.14348C48.377 7.77014 49.001 6.28674 49.001 4.74209C49.001 1.97531 46.5127 0 43.8225 0Z" fill="black"/>
</svg>
