<svg width="482" height="632" viewBox="0 0 482 632" fill="none" xmlns="http://www.w3.org/2000/svg">
<path d="M1 609V1C37.8 27.4 53.8333 35.5 58 36.5C81.5 48 87.5 56.5 154.5 81C253.846 117.328 298 139.5 338 167.5C376.314 194.32 427.106 256.533 437 270C455 294.5 466.785 323.449 472.5 356C481.366 406.5 483.162 431 479 453C472 490 476 519 386 602C366.516 619.969 319.473 632.836 297 630.5C157.5 616 124.259 600.812 115.5 599C101 596 93 594 66.5 594C36 594 16.6667 600.333 1 609Z" fill="#672FD0" fill-opacity="0.2" stroke="#672FD0" stroke-opacity="0.2"/>
</svg>
