<svg width="27" height="27" viewBox="0 0 27 27" fill="none" xmlns="http://www.w3.org/2000/svg">
<path d="M17.7188 13.5C17.7188 14.6189 17.2743 15.6919 16.4831 16.4831C15.6919 17.2743 14.6189 17.7188 13.5 17.7188C12.3811 17.7188 11.3081 17.2743 10.5169 16.4831C9.72572 15.6919 9.28125 14.6189 9.28125 13.5C9.28125 13.2595 9.30656 13.0247 9.35016 12.7969H7.875V18.4177C7.875 18.8086 8.19141 19.125 8.58234 19.125H18.4191C18.6064 19.1246 18.786 19.0499 18.9183 18.9173C19.0507 18.7847 19.125 18.605 19.125 18.4177V12.7969H17.6498C17.6934 13.0247 17.7188 13.2595 17.7188 13.5ZM13.5 16.3125C13.8694 16.3124 14.2352 16.2396 14.5765 16.0981C14.9178 15.9566 15.2279 15.7493 15.489 15.488C15.7502 15.2267 15.9573 14.9166 16.0986 14.5752C16.2399 14.2339 16.3126 13.868 16.3125 13.4986C16.3124 13.1292 16.2396 12.7634 16.0981 12.4221C15.9566 12.0808 15.7493 11.7707 15.488 11.5096C15.2267 11.2484 14.9166 11.0413 14.5752 10.9C14.2339 10.7587 13.868 10.686 13.4986 10.6861C12.7525 10.6863 12.037 10.9828 11.5096 11.5106C10.9821 12.0383 10.6859 12.7539 10.6861 13.5C10.6863 14.2461 10.9828 14.9616 11.5106 15.489C12.0383 16.0165 12.7539 16.3127 13.5 16.3125ZM16.875 10.5469H18.5611C18.6731 10.5469 18.7806 10.5025 18.8599 10.4234C18.9392 10.3443 18.984 10.237 18.9844 10.125V8.43891C18.9844 8.32664 18.9398 8.21898 18.8604 8.1396C18.781 8.06022 18.6734 8.01562 18.5611 8.01562H16.875C16.7627 8.01562 16.6551 8.06022 16.5757 8.1396C16.4963 8.21898 16.4517 8.32664 16.4517 8.43891V10.125C16.4531 10.357 16.643 10.5469 16.875 10.5469ZM13.5 0C9.91958 0 6.4858 1.42232 3.95406 3.95406C1.42232 6.4858 0 9.91958 0 13.5C0 17.0804 1.42232 20.5142 3.95406 23.0459C6.4858 25.5777 9.91958 27 13.5 27C15.2728 27 17.0283 26.6508 18.6662 25.9724C20.3041 25.2939 21.7924 24.2995 23.0459 23.0459C24.2995 21.7924 25.2939 20.3041 25.9724 18.6662C26.6508 17.0283 27 15.2728 27 13.5C27 11.7272 26.6508 9.97167 25.9724 8.33377C25.2939 6.69588 24.2995 5.20765 23.0459 3.95406C21.7924 2.70047 20.3041 1.70606 18.6662 1.02763C17.0283 0.349188 15.2728 0 13.5 0ZM20.5312 18.9689C20.5312 19.8281 19.8281 20.5312 18.9689 20.5312H8.03109C7.17188 20.5312 6.46875 19.8281 6.46875 18.9689V8.03109C6.46875 7.17188 7.17188 6.46875 8.03109 6.46875H18.9689C19.8281 6.46875 20.5312 7.17188 20.5312 8.03109V18.9689Z" fill="#FDFEFF"/>
</svg>
