<svg width="80" height="80" viewBox="0 0 80 80" fill="none" xmlns="http://www.w3.org/2000/svg">
<path d="M41.4233 79.4148C23.3881 79.2107 -6.11805 64.5 1.29167 6.08179C1.47059 40.4723 20.9246 57.504 31.2391 57.4503C38.0495 57.4149 42.7334 51.6859 43.201 40.6147L36.5747 40.6491L37.7413 38.4087L56.3188 2.67852L57.6522 0.110758L59.0172 2.66464L77.9651 38.1992L79.155 40.4275L69.4523 40.4779C68.9915 64.557 56.4555 79.2109 42.2754 79.4104C41.9952 79.4146 41.7098 79.4182 41.4233 79.4148ZM40.6358 72.1393C54.6028 72.249 64.4329 59.6633 64.7278 37.4521L74.0836 37.4034L57.6909 6.65569L41.6137 37.5725L52.3215 37.5168C52.0615 60.4064 42.6577 70.5164 24.4429 67.0867C30.2002 70.4601 35.6797 72.1003 40.6357 72.1395L40.6358 72.1393Z" fill="white"/>
</svg>
