<svg width="27" height="27" viewBox="0 0 27 27" fill="none" xmlns="http://www.w3.org/2000/svg">
<path d="M9.504 26.379C10.8 26.7705 12.1095 27 13.5 27C17.0804 27 20.5142 25.5777 23.0459 23.0459C25.5777 20.5142 27 17.0804 27 13.5C27 11.7272 26.6508 9.97167 25.9724 8.33377C25.2939 6.69588 24.2995 5.20765 23.0459 3.95406C21.7924 2.70047 20.3041 1.70606 18.6662 1.02763C17.0283 0.349188 15.2728 0 13.5 0C11.7272 0 9.97167 0.349188 8.33377 1.02763C6.69588 1.70606 5.20765 2.70047 3.95406 3.95406C1.42232 6.4858 0 9.91958 0 13.5C0 19.2375 3.6045 24.165 8.694 26.109C8.5725 25.056 8.451 23.3145 8.694 22.113L10.2465 15.444C10.2465 15.444 9.855 14.661 9.855 13.419C9.855 11.556 11.016 10.1655 12.339 10.1655C13.5 10.1655 14.04 11.016 14.04 12.1095C14.04 13.2705 13.2705 14.931 12.879 16.524C12.6495 17.847 13.581 19.008 14.931 19.008C17.334 19.008 19.197 16.443 19.197 12.825C19.197 9.585 16.875 7.371 13.5405 7.371C9.7335 7.371 7.4925 10.206 7.4925 13.1895C7.4925 14.3505 7.8705 15.525 8.4915 16.2945C8.613 16.3755 8.613 16.4835 8.5725 16.686L8.181 18.1575C8.181 18.387 8.0325 18.468 7.803 18.306C6.075 17.55 5.076 15.093 5.076 13.1085C5.076 8.8425 8.1 4.968 13.932 4.968C18.576 4.968 22.194 8.3025 22.194 12.7305C22.194 17.3745 19.3185 21.1005 15.201 21.1005C13.8915 21.1005 12.609 20.3985 12.15 19.575L11.2455 22.7745C10.935 23.9355 10.0845 25.488 9.504 26.4195V26.379Z" fill="#FDFEFF"/>
</svg>
